<svg xmlns="http://www.w3.org/2000/svg" version="1.1" xmlns:xlink="http://www.w3.org/1999/xlink" xmlns:svgjs="http://svgjs.dev/svgjs" width="2000" height="595" viewBox="0 0 2000 595"><g transform="matrix(1,0,0,1,-1.2121212121212466,-2.4035577088517357)"><svg viewBox="0 0 396 118" data-background-color="#ffffff" preserveAspectRatio="xMidYMid meet" height="595" width="2000" xmlns="http://www.w3.org/2000/svg" xmlns:xlink="http://www.w3.org/1999/xlink"><g id="tight-bounds" transform="matrix(1,0,0,1,0.2400000000000091,0.4766719489823572)"><svg viewBox="0 0 395.52 117.04665610203527" height="117.04665610203527" width="395.52"><g><svg viewBox="0 0 520.0932191123642 153.91174190545453" height="117.04665610203527" width="395.52"><g transform="matrix(1,0,0,1,124.57321911236421,28.534634589090906)"><svg viewBox="0 0 395.52 96.84247272727272" height="96.84247272727272" width="395.52"><g id="textblocktransform"><svg viewBox="0 0 395.52 96.84247272727272" height="96.84247272727272" width="395.52" id="textblock"><g><svg viewBox="0 0 395.52 96.84247272727272" height="96.84247272727272" width="395.52"><g transform="matrix(1,0,0,1,0,0)"><svg width="395.52" viewBox="3 -39.65 206.23 50.5" height="96.84247272727272" data-palette-color="#000000"><path d="M25.35 0L18.5 0 12.4-13.95 11.8-13.95 9.35-13.95 9.35 0 3 0 3-34.55 11.15-34.55Q23.65-34.55 23.65-24.4L23.65-24.4Q23.65-21.25 22.25-18.82 20.85-16.4 18.05-15.15L18.05-15.15 25.35 0ZM11.45-18.55Q14.4-18.55 15.73-19.95 17.05-21.35 17.05-24.4L17.05-24.4Q17.05-27.25 15.68-28.58 14.3-29.9 11.15-29.9L11.15-29.9 9.35-29.9 9.35-18.55 11.45-18.55ZM45.3-6.4Q45.3-5.1 45.65-4.48 46-3.85 46.8-3.45L46.8-3.45 45.55 0.65Q43.5 0.4 42.27-0.45 41.05-1.3 40.45-3.05L40.45-3.05Q38.15 0.75 34 0.75L34 0.75Q30.7 0.75 28.75-1.48 26.8-3.7 26.8-7.4L26.8-7.4Q26.8-11.7 29.47-13.95 32.15-16.2 37.25-16.2L37.25-16.2 39.3-16.2 39.3-18.05Q39.3-20.55 38.42-21.58 37.55-22.6 35.6-22.6L35.6-22.6Q33.25-22.6 29.75-21.3L29.75-21.3 28.35-25.3Q30.35-26.2 32.5-26.68 34.65-27.15 36.6-27.15L36.6-27.15Q45.3-27.15 45.3-18.35L45.3-18.35 45.3-6.4ZM35.65-3.7Q38.05-3.7 39.3-7L39.3-7 39.3-12.55 37.85-12.55Q35.3-12.55 34.12-11.4 32.95-10.25 32.95-7.85L32.95-7.85Q32.95-5.8 33.65-4.75 34.35-3.7 35.65-3.7L35.65-3.7ZM63.45-27.15Q66.3-27.15 67.95-25.1 69.59-23.05 69.59-19.6L69.59-19.6 69.59 0 63.45 0 63.45-18.9Q63.45-20.8 62.92-21.63 62.4-22.45 61.4-22.45L61.4-22.45Q59.3-22.45 57.25-18.5L57.25-18.5 57.25 0 51.1 0 51.1-26.45 56.45-26.45 56.9-23Q58.25-25.1 59.77-26.13 61.3-27.15 63.45-27.15L63.45-27.15ZM93.09-29.85L94.64-25.1Q93.59-24.6 92.12-24.4 90.64-24.2 88.44-24.2L88.44-24.2Q90.54-23.2 91.57-21.53 92.59-19.85 92.59-17.4L92.59-17.4Q92.59-13.4 90.14-10.95 87.69-8.5 83.49-8.5L83.49-8.5Q82.24-8.5 80.94-8.9L80.94-8.9Q80.04-8.15 80.04-6.85L80.04-6.85Q80.04-5.85 80.59-5.35 81.14-4.85 82.64-4.85L82.64-4.85 85.44-4.85Q89.44-4.85 91.79-2.78 94.14-0.7 94.14 2.5L94.14 2.5Q94.14 6.3 91.22 8.58 88.29 10.85 82.89 10.85L82.89 10.85Q77.19 10.85 74.92 8.75 72.64 6.65 72.64 2.6L72.64 2.6 78.09 2.6Q78.09 4.75 79.09 5.65 80.09 6.55 82.94 6.55L82.94 6.55Q85.69 6.55 86.84 5.6 87.99 4.65 87.99 2.9L87.99 2.9Q87.99 1.2 87.04 0.4 86.09-0.4 84.09-0.4L84.09-0.4 82.19-0.4Q78.39-0.4 76.64-1.75 74.89-3.1 74.89-5.45L74.89-5.45Q74.89-6.8 75.62-8.03 76.34-9.25 77.59-10.2L77.59-10.2Q75.54-11.5 74.59-13.3 73.64-15.1 73.64-17.7L73.64-17.7Q73.64-22.05 76.24-24.58 78.84-27.1 83.24-27.1L83.24-27.1Q86.49-27.1 88.62-27.8 90.74-28.5 93.09-29.85L93.09-29.85ZM83.24-23Q81.49-23 80.59-21.75 79.69-20.5 79.69-17.8L79.69-17.8Q79.69-15.25 80.59-13.88 81.49-12.5 83.19-12.5L83.19-12.5Q84.94-12.5 85.79-13.73 86.64-14.95 86.64-17.85L86.64-17.85Q86.64-20.55 85.82-21.78 84.99-23 83.24-23L83.24-23ZM97.39-37.05L103.54-37.7 103.54 0 97.39 0 97.39-37.05ZM110.89-26.45L116.89-26.45 109.89-14.75 117.49 0 110.89 0 103.79-14.45 110.89-26.45ZM138.19-26.45L138.19 0 132.84 0 132.54-3.35Q131.29-1.3 129.74-0.28 128.19 0.75 126.14 0.75L126.14 0.75Q123.24 0.75 121.56-1.3 119.89-3.35 119.89-6.65L119.89-6.65 119.89-26.45 126.04-26.45 126.04-7Q126.04-3.9 128.14-3.9L128.14-3.9Q129.34-3.9 130.29-4.83 131.24-5.75 132.04-7.45L132.04-7.45 132.04-26.45 138.19-26.45ZM167.54-27.15Q170.19-27.15 171.79-25.1 173.39-23.05 173.39-19.6L173.39-19.6 173.39 0 167.34 0 167.34-18.95Q167.34-20.85 166.84-21.68 166.34-22.5 165.39-22.5L165.39-22.5Q163.44-22.5 161.64-18.8L161.64-18.8 161.64 0 155.64 0 155.64-18.95Q155.64-22.5 153.74-22.5L153.74-22.5Q151.69-22.5 149.94-18.8L149.94-18.8 149.94 0 143.89 0 143.89-26.45 149.24-26.45 149.64-23.05Q152.24-27.15 155.89-27.15L155.89-27.15Q157.74-27.15 159.09-26 160.44-24.85 161.14-22.75L161.14-22.75Q163.79-27.15 167.54-27.15L167.54-27.15ZM178.88-26.45L185.03-26.45 185.03 0 178.88 0 178.88-26.45ZM181.93-39.65Q183.58-39.65 184.61-38.6 185.63-37.55 185.63-35.9L185.63-35.9Q185.63-34.3 184.61-33.25 183.58-32.2 181.93-32.2L181.93-32.2Q180.28-32.2 179.26-33.25 178.23-34.3 178.23-35.9L178.23-35.9Q178.23-37.55 179.26-38.6 180.28-39.65 181.93-39.65L181.93-39.65ZM203.08-27.15Q205.93-27.15 207.58-25.1 209.23-23.05 209.23-19.6L209.23-19.6 209.23 0 203.08 0 203.08-18.9Q203.08-20.8 202.56-21.63 202.03-22.45 201.03-22.45L201.03-22.45Q198.93-22.45 196.88-18.5L196.88-18.5 196.88 0 190.73 0 190.73-26.45 196.08-26.45 196.53-23Q197.88-25.1 199.41-26.13 200.93-27.15 203.08-27.15L203.08-27.15Z" opacity="1" transform="matrix(1,0,0,1,0,0)" fill="#000000" class="wordmark-text-0" data-fill-palette-color="primary" id="text-0"></path></svg></g></svg></g></svg></g></svg></g><g><svg viewBox="0 0 101.71103552080058 153.91174190545453" height="153.91174190545453" width="101.71103552080058"><g><svg version="1.1" xmlns="http://www.w3.org/2000/svg" xmlns:xlink="http://www.w3.org/1999/xlink" x="0" y="0" viewBox="0 0 66.084 100" enable-background="new 0 0 66.084 100" xml:space="preserve" id="icon-0" width="101.71103552080058" height="153.91174190545453" class="icon-icon-0" data-fill-palette-color="accent"><path d="M19.354 0L0 6.911V72.915L47.722 100 51.803 98.542V95.92L62.004 92.276V94.899L66.084 93.442V26.551zM62.003 87.944L51.803 91.587 51.802 31.651 9.755 7.761 18.964 4.471 62.003 28.926z" fill="#a452f2" data-fill-palette-color="accent"></path></svg></g></svg></g></svg></g><defs></defs></svg><rect width="395.52" height="117.04665610203527" fill="none" stroke="none" visibility="hidden"></rect></g></svg></g></svg>